<mxfile host="app.diagrams.net" modified="2021-11-24T22:04:00.160Z" agent="5.0 (Windows NT 10.0; Win64; x64) AppleWebKit/537.36 (KHTML, like Gecko) Chrome/96.0.4664.45 Safari/537.36" etag="mjvWYeHy46UlDTy7v0yh" version="15.8.2" type="github">
  <diagram id="hdE3rku1YJ5EQBi32LEU" name="Page-1">
    <mxGraphModel dx="1154" dy="508" grid="1" gridSize="10" guides="1" tooltips="1" connect="1" arrows="1" fold="1" page="1" pageScale="1" pageWidth="850" pageHeight="1100" math="0" shadow="0">
      <root>
        <mxCell id="0" />
        <mxCell id="1" parent="0" />
        <mxCell id="6wpjzhj1WaeNJ_ekcqtX-5" value="" style="edgeStyle=none;rounded=0;orthogonalLoop=1;jettySize=auto;html=1;" edge="1" parent="1" source="6wpjzhj1WaeNJ_ekcqtX-1" target="6wpjzhj1WaeNJ_ekcqtX-3">
          <mxGeometry relative="1" as="geometry" />
        </mxCell>
        <mxCell id="6wpjzhj1WaeNJ_ekcqtX-1" value="Start" style="rounded=1;whiteSpace=wrap;html=1;" vertex="1" parent="1">
          <mxGeometry x="382" y="30" width="110" height="30" as="geometry" />
        </mxCell>
        <mxCell id="6wpjzhj1WaeNJ_ekcqtX-7" value="Yes" style="edgeStyle=none;rounded=0;orthogonalLoop=1;jettySize=auto;html=1;" edge="1" parent="1" source="6wpjzhj1WaeNJ_ekcqtX-3" target="6wpjzhj1WaeNJ_ekcqtX-6">
          <mxGeometry relative="1" as="geometry" />
        </mxCell>
        <mxCell id="6wpjzhj1WaeNJ_ekcqtX-18" value="Yes" style="edgeStyle=none;rounded=0;orthogonalLoop=1;jettySize=auto;html=1;" edge="1" parent="1" source="6wpjzhj1WaeNJ_ekcqtX-3" target="6wpjzhj1WaeNJ_ekcqtX-17">
          <mxGeometry relative="1" as="geometry" />
        </mxCell>
        <mxCell id="6wpjzhj1WaeNJ_ekcqtX-3" value="Deal?" style="rhombus;whiteSpace=wrap;html=1;" vertex="1" parent="1">
          <mxGeometry x="404.5" y="90" width="65" height="70" as="geometry" />
        </mxCell>
        <mxCell id="6wpjzhj1WaeNJ_ekcqtX-11" value="" style="edgeStyle=none;rounded=0;orthogonalLoop=1;jettySize=auto;html=1;" edge="1" parent="1" source="6wpjzhj1WaeNJ_ekcqtX-6" target="6wpjzhj1WaeNJ_ekcqtX-10">
          <mxGeometry relative="1" as="geometry" />
        </mxCell>
        <mxCell id="6wpjzhj1WaeNJ_ekcqtX-6" value="Generate 2 random cards for Player" style="whiteSpace=wrap;html=1;" vertex="1" parent="1">
          <mxGeometry x="232" y="95" width="120" height="60" as="geometry" />
        </mxCell>
        <mxCell id="6wpjzhj1WaeNJ_ekcqtX-24" value="No" style="edgeStyle=none;rounded=0;orthogonalLoop=1;jettySize=auto;html=1;" edge="1" parent="1" source="6wpjzhj1WaeNJ_ekcqtX-10">
          <mxGeometry relative="1" as="geometry">
            <mxPoint x="292" y="250" as="targetPoint" />
          </mxGeometry>
        </mxCell>
        <mxCell id="6wpjzhj1WaeNJ_ekcqtX-26" value="" style="edgeStyle=none;rounded=0;orthogonalLoop=1;jettySize=auto;html=1;" edge="1" parent="1" source="6wpjzhj1WaeNJ_ekcqtX-10" target="6wpjzhj1WaeNJ_ekcqtX-25">
          <mxGeometry relative="1" as="geometry" />
        </mxCell>
        <mxCell id="6wpjzhj1WaeNJ_ekcqtX-45" value="Yes" style="edgeStyle=orthogonalEdgeStyle;rounded=0;orthogonalLoop=1;jettySize=auto;html=1;" edge="1" parent="1" source="6wpjzhj1WaeNJ_ekcqtX-10" target="6wpjzhj1WaeNJ_ekcqtX-44">
          <mxGeometry relative="1" as="geometry" />
        </mxCell>
        <mxCell id="6wpjzhj1WaeNJ_ekcqtX-10" value="Is total 21?" style="rhombus;whiteSpace=wrap;html=1;" vertex="1" parent="1">
          <mxGeometry x="252" y="180" width="80" height="40" as="geometry" />
        </mxCell>
        <mxCell id="6wpjzhj1WaeNJ_ekcqtX-40" value="" style="edgeStyle=orthogonalEdgeStyle;rounded=0;orthogonalLoop=1;jettySize=auto;html=1;" edge="1" parent="1" source="6wpjzhj1WaeNJ_ekcqtX-17">
          <mxGeometry relative="1" as="geometry">
            <mxPoint x="572" y="180" as="targetPoint" />
          </mxGeometry>
        </mxCell>
        <mxCell id="6wpjzhj1WaeNJ_ekcqtX-17" value="Generate 2 random cards for Dealer" style="whiteSpace=wrap;html=1;" vertex="1" parent="1">
          <mxGeometry x="512" y="95" width="120" height="60" as="geometry" />
        </mxCell>
        <mxCell id="6wpjzhj1WaeNJ_ekcqtX-19" value="Its Blackjack!! &lt;br&gt;Player wins!!" style="whiteSpace=wrap;html=1;" vertex="1" parent="1">
          <mxGeometry x="67" y="96" width="120" height="60" as="geometry" />
        </mxCell>
        <mxCell id="6wpjzhj1WaeNJ_ekcqtX-28" value="Yes" style="edgeStyle=none;rounded=0;orthogonalLoop=1;jettySize=auto;html=1;" edge="1" parent="1" source="6wpjzhj1WaeNJ_ekcqtX-25" target="6wpjzhj1WaeNJ_ekcqtX-27">
          <mxGeometry relative="1" as="geometry" />
        </mxCell>
        <mxCell id="6wpjzhj1WaeNJ_ekcqtX-30" value="No" style="edgeStyle=none;rounded=0;orthogonalLoop=1;jettySize=auto;html=1;" edge="1" parent="1" source="6wpjzhj1WaeNJ_ekcqtX-25" target="6wpjzhj1WaeNJ_ekcqtX-29">
          <mxGeometry relative="1" as="geometry" />
        </mxCell>
        <mxCell id="6wpjzhj1WaeNJ_ekcqtX-25" value="Is total &amp;gt; 21?" style="rhombus;whiteSpace=wrap;html=1;" vertex="1" parent="1">
          <mxGeometry x="252" y="260" width="80" height="40" as="geometry" />
        </mxCell>
        <mxCell id="6wpjzhj1WaeNJ_ekcqtX-27" value="Bust!! Dealer wins" style="whiteSpace=wrap;html=1;" vertex="1" parent="1">
          <mxGeometry x="72" y="250" width="120" height="60" as="geometry" />
        </mxCell>
        <mxCell id="6wpjzhj1WaeNJ_ekcqtX-32" value="" style="edgeStyle=none;rounded=0;orthogonalLoop=1;jettySize=auto;html=1;" edge="1" parent="1" source="6wpjzhj1WaeNJ_ekcqtX-29" target="6wpjzhj1WaeNJ_ekcqtX-31">
          <mxGeometry relative="1" as="geometry" />
        </mxCell>
        <mxCell id="6wpjzhj1WaeNJ_ekcqtX-29" value="Show total to Player!!" style="whiteSpace=wrap;html=1;" vertex="1" parent="1">
          <mxGeometry x="232" y="330" width="120" height="60" as="geometry" />
        </mxCell>
        <mxCell id="6wpjzhj1WaeNJ_ekcqtX-34" value="Stand" style="edgeStyle=none;rounded=0;orthogonalLoop=1;jettySize=auto;html=1;" edge="1" parent="1" source="6wpjzhj1WaeNJ_ekcqtX-31" target="6wpjzhj1WaeNJ_ekcqtX-33">
          <mxGeometry relative="1" as="geometry" />
        </mxCell>
        <mxCell id="6wpjzhj1WaeNJ_ekcqtX-66" value="Hit" style="edgeStyle=orthogonalEdgeStyle;rounded=0;orthogonalLoop=1;jettySize=auto;html=1;exitX=1;exitY=0.5;exitDx=0;exitDy=0;entryX=0.5;entryY=1;entryDx=0;entryDy=0;" edge="1" parent="1" source="6wpjzhj1WaeNJ_ekcqtX-31" target="6wpjzhj1WaeNJ_ekcqtX-36">
          <mxGeometry relative="1" as="geometry" />
        </mxCell>
        <mxCell id="6wpjzhj1WaeNJ_ekcqtX-31" value="Hit &lt;br&gt;or&lt;br&gt;&amp;nbsp;Stand?" style="rhombus;whiteSpace=wrap;html=1;" vertex="1" parent="1">
          <mxGeometry x="258" y="430" width="68" height="60" as="geometry" />
        </mxCell>
        <mxCell id="6wpjzhj1WaeNJ_ekcqtX-82" style="edgeStyle=orthogonalEdgeStyle;rounded=0;orthogonalLoop=1;jettySize=auto;html=1;entryX=0;entryY=0.5;entryDx=0;entryDy=0;" edge="1" parent="1" source="6wpjzhj1WaeNJ_ekcqtX-33" target="6wpjzhj1WaeNJ_ekcqtX-60">
          <mxGeometry relative="1" as="geometry">
            <Array as="points">
              <mxPoint x="470" y="560" />
              <mxPoint x="470" y="350" />
            </Array>
          </mxGeometry>
        </mxCell>
        <mxCell id="6wpjzhj1WaeNJ_ekcqtX-33" value="Wait for Dealer play!!" style="whiteSpace=wrap;html=1;" vertex="1" parent="1">
          <mxGeometry x="232" y="530" width="120" height="60" as="geometry" />
        </mxCell>
        <mxCell id="6wpjzhj1WaeNJ_ekcqtX-38" style="edgeStyle=orthogonalEdgeStyle;rounded=0;orthogonalLoop=1;jettySize=auto;html=1;exitX=0.5;exitY=0;exitDx=0;exitDy=0;entryX=1;entryY=0.5;entryDx=0;entryDy=0;" edge="1" parent="1" source="6wpjzhj1WaeNJ_ekcqtX-36" target="6wpjzhj1WaeNJ_ekcqtX-25">
          <mxGeometry relative="1" as="geometry" />
        </mxCell>
        <mxCell id="6wpjzhj1WaeNJ_ekcqtX-36" value="Generate&lt;br&gt;a&lt;br&gt;card" style="whiteSpace=wrap;html=1;" vertex="1" parent="1">
          <mxGeometry x="400" y="330" width="50" height="70" as="geometry" />
        </mxCell>
        <mxCell id="6wpjzhj1WaeNJ_ekcqtX-54" value="Yes" style="edgeStyle=orthogonalEdgeStyle;rounded=0;orthogonalLoop=1;jettySize=auto;html=1;" edge="1" parent="1" source="6wpjzhj1WaeNJ_ekcqtX-41">
          <mxGeometry relative="1" as="geometry">
            <mxPoint x="690" y="200" as="targetPoint" />
          </mxGeometry>
        </mxCell>
        <mxCell id="6wpjzhj1WaeNJ_ekcqtX-41" value="Is total 21?" style="rhombus;whiteSpace=wrap;html=1;" vertex="1" parent="1">
          <mxGeometry x="532" y="180" width="80" height="40" as="geometry" />
        </mxCell>
        <mxCell id="6wpjzhj1WaeNJ_ekcqtX-42" value="Its Blackjack!! &lt;br&gt;Dealer wins!!" style="whiteSpace=wrap;html=1;" vertex="1" parent="1">
          <mxGeometry x="661" y="96" width="120" height="60" as="geometry" />
        </mxCell>
        <mxCell id="6wpjzhj1WaeNJ_ekcqtX-47" value="No" style="edgeStyle=orthogonalEdgeStyle;rounded=0;orthogonalLoop=1;jettySize=auto;html=1;exitX=0.5;exitY=0;exitDx=0;exitDy=0;entryX=0.5;entryY=1;entryDx=0;entryDy=0;" edge="1" parent="1" source="6wpjzhj1WaeNJ_ekcqtX-44" target="6wpjzhj1WaeNJ_ekcqtX-19">
          <mxGeometry relative="1" as="geometry" />
        </mxCell>
        <mxCell id="6wpjzhj1WaeNJ_ekcqtX-49" value="Yes" style="edgeStyle=orthogonalEdgeStyle;rounded=0;orthogonalLoop=1;jettySize=auto;html=1;" edge="1" parent="1" source="6wpjzhj1WaeNJ_ekcqtX-44" target="6wpjzhj1WaeNJ_ekcqtX-48">
          <mxGeometry relative="1" as="geometry" />
        </mxCell>
        <mxCell id="6wpjzhj1WaeNJ_ekcqtX-44" value="Is Dealer 21?" style="rhombus;whiteSpace=wrap;html=1;" vertex="1" parent="1">
          <mxGeometry x="92" y="180" width="68" height="40" as="geometry" />
        </mxCell>
        <mxCell id="6wpjzhj1WaeNJ_ekcqtX-48" value="Its a Draw" style="whiteSpace=wrap;html=1;" vertex="1" parent="1">
          <mxGeometry x="10" y="170" width="50" height="60" as="geometry" />
        </mxCell>
        <mxCell id="6wpjzhj1WaeNJ_ekcqtX-55" value="No" style="edgeStyle=orthogonalEdgeStyle;rounded=0;orthogonalLoop=1;jettySize=auto;html=1;" edge="1" parent="1" source="6wpjzhj1WaeNJ_ekcqtX-52" target="6wpjzhj1WaeNJ_ekcqtX-42">
          <mxGeometry relative="1" as="geometry" />
        </mxCell>
        <mxCell id="6wpjzhj1WaeNJ_ekcqtX-57" value="Yes" style="edgeStyle=orthogonalEdgeStyle;rounded=0;orthogonalLoop=1;jettySize=auto;html=1;" edge="1" parent="1" source="6wpjzhj1WaeNJ_ekcqtX-52" target="6wpjzhj1WaeNJ_ekcqtX-56">
          <mxGeometry relative="1" as="geometry" />
        </mxCell>
        <mxCell id="6wpjzhj1WaeNJ_ekcqtX-52" value="Is Player 21?" style="rhombus;whiteSpace=wrap;html=1;" vertex="1" parent="1">
          <mxGeometry x="687" y="180" width="68" height="40" as="geometry" />
        </mxCell>
        <mxCell id="6wpjzhj1WaeNJ_ekcqtX-56" value="Its&amp;nbsp;a&lt;br&gt;Draw!!" style="whiteSpace=wrap;html=1;" vertex="1" parent="1">
          <mxGeometry x="781" y="170" width="50" height="60" as="geometry" />
        </mxCell>
        <mxCell id="6wpjzhj1WaeNJ_ekcqtX-70" value="No" style="edgeStyle=orthogonalEdgeStyle;rounded=0;orthogonalLoop=1;jettySize=auto;html=1;" edge="1" parent="1" source="6wpjzhj1WaeNJ_ekcqtX-60">
          <mxGeometry relative="1" as="geometry">
            <mxPoint x="572" y="410" as="targetPoint" />
          </mxGeometry>
        </mxCell>
        <mxCell id="6wpjzhj1WaeNJ_ekcqtX-76" value="Yes" style="edgeStyle=orthogonalEdgeStyle;rounded=0;orthogonalLoop=1;jettySize=auto;html=1;" edge="1" parent="1" source="6wpjzhj1WaeNJ_ekcqtX-60" target="6wpjzhj1WaeNJ_ekcqtX-75">
          <mxGeometry relative="1" as="geometry" />
        </mxCell>
        <mxCell id="6wpjzhj1WaeNJ_ekcqtX-60" value="Is Dealer &amp;gt; Player total" style="rhombus;whiteSpace=wrap;html=1;" vertex="1" parent="1">
          <mxGeometry x="538" y="320" width="68" height="60" as="geometry" />
        </mxCell>
        <mxCell id="6wpjzhj1WaeNJ_ekcqtX-78" value="" style="edgeStyle=orthogonalEdgeStyle;rounded=0;orthogonalLoop=1;jettySize=auto;html=1;" edge="1" parent="1" source="6wpjzhj1WaeNJ_ekcqtX-71" target="6wpjzhj1WaeNJ_ekcqtX-77">
          <mxGeometry relative="1" as="geometry" />
        </mxCell>
        <mxCell id="6wpjzhj1WaeNJ_ekcqtX-71" value="Pick a card" style="rhombus;whiteSpace=wrap;html=1;" vertex="1" parent="1">
          <mxGeometry x="538" y="410" width="68" height="60" as="geometry" />
        </mxCell>
        <mxCell id="6wpjzhj1WaeNJ_ekcqtX-75" value="Dealer Wins!!" style="whiteSpace=wrap;html=1;" vertex="1" parent="1">
          <mxGeometry x="660" y="320" width="120" height="60" as="geometry" />
        </mxCell>
        <mxCell id="6wpjzhj1WaeNJ_ekcqtX-80" value="Yes" style="edgeStyle=orthogonalEdgeStyle;rounded=0;orthogonalLoop=1;jettySize=auto;html=1;" edge="1" parent="1" source="6wpjzhj1WaeNJ_ekcqtX-77" target="6wpjzhj1WaeNJ_ekcqtX-79">
          <mxGeometry relative="1" as="geometry" />
        </mxCell>
        <mxCell id="6wpjzhj1WaeNJ_ekcqtX-81" value="No" style="edgeStyle=elbowEdgeStyle;rounded=0;orthogonalLoop=1;jettySize=auto;html=1;" edge="1" parent="1" source="6wpjzhj1WaeNJ_ekcqtX-77">
          <mxGeometry relative="1" as="geometry">
            <mxPoint x="530" y="350" as="targetPoint" />
            <Array as="points">
              <mxPoint x="490" y="530" />
              <mxPoint x="540" y="530" />
              <mxPoint x="500" y="510" />
            </Array>
          </mxGeometry>
        </mxCell>
        <mxCell id="6wpjzhj1WaeNJ_ekcqtX-77" value="Is total&lt;br&gt;&amp;gt;&amp;nbsp; 21" style="rhombus;whiteSpace=wrap;html=1;" vertex="1" parent="1">
          <mxGeometry x="538" y="500" width="68" height="60" as="geometry" />
        </mxCell>
        <mxCell id="6wpjzhj1WaeNJ_ekcqtX-79" value="Bust!! Player wins!!" style="whiteSpace=wrap;html=1;" vertex="1" parent="1">
          <mxGeometry x="660" y="500" width="120" height="60" as="geometry" />
        </mxCell>
      </root>
    </mxGraphModel>
  </diagram>
</mxfile>
